<svg xmlns="http://www.w3.org/2000/svg" viewBox="0 0 300 346.41"><title>ct-Asset 1</title><g id="Layer_2" data-name="Layer 2"><g id="Layer_1-2" data-name="Layer 1"><g id="Layer_1-2-2" data-name="Layer 1-2"><polygon points="299.99 259.8 299.99 259.81 150.01 346.4 150.01 346.41 150 346.4 149.99 288.68 150 288.68 250 230.94 299.99 259.8" fill="#5cb85c"/><polygon points="150.01 346.4 150.01 346.41 150 346.4 0 259.81 50 230.94 149.99 288.68 150 288.68 150.01 346.4" fill="#5cb85c"/><polygon points="50 115.47 50 230.94 0 259.81 0.01 86.61 0.01 86.6 50 115.47" fill="#5cb85c"/><polygon points="150.01 57.73 150 57.74 50 115.47 0.01 86.61 0.01 86.6 150 0 150 0.03 150.01 57.73" fill="#5cb85c"/><polygon points="300 86.6 299.99 259.8 299.99 259.81 250 230.94 250 173.2 150 230.94 100 202.07 100 202.06 300 86.6" fill="#5bc0de"/><polygon points="299.97 86.6 100 202.06 100 144.33 199.99 86.6 150 57.74 149.99 0.02 150 0.03 299.97 86.6" fill="#4490a7"/><polygon points="200.01 86.6 100 144.34 100 144.33 199.99 86.6 150 57.74 150.01 57.73 200.01 86.6" fill="#fff"/></g></g></g></svg>