<svg xmlns="http://www.w3.org/2000/svg" xmlns:xlink="http://www.w3.org/1999/xlink" viewBox="0 0 970.56 397.21"><defs><style>.cls-1{fill:none;}.cls-2{isolation:isolate;}.cls-3{fill:url(#radial-gradient);}.cls-4{fill:#ffa400;}.cls-5{fill:#ffe81b;}.cls-6{fill:#fffb67;}.cls-7{fill:#ffc852;opacity:0.4;}.cls-30,.cls-35,.cls-7{mix-blend-mode:multiply;}.cls-8{fill:#fffcb9;}.cls-9{fill:#f90;}.cls-10{fill:#ff6200;}.cls-11{fill:#ffb700;}.cls-12{fill:#ffe92b;}.cls-13{fill:#ffcd00;}.cls-14{fill:#ff8100;}.cls-15{fill:#ffd41c;}.cls-16{fill:#a11400;}.cls-17{fill:#ff2b22;}.cls-18{fill:#ff3f2a;}.cls-19{fill:#edfdff;}.cls-20{fill:#ff724d;}.cls-21{fill:#fff;}.cls-22{fill:#760b00;}.cls-23{fill:#c81b00;}.cls-24{fill:#e52100;}.cls-25,.cls-30{fill:#bbdfff;}.cls-26{fill:#e72100;}.cls-27,.cls-35{fill:#8cc2f3;}.cls-28{fill:#d6f2ff;}.cls-29{fill:#d2ebff;}.cls-31{fill:#500500;}.cls-32{fill:#fc5644;}.cls-33{fill:#f52d00;}.cls-34{fill:#fffdff;}.cls-36{fill:url(#linear-gradient);}.cls-37{fill:url(#linear-gradient-2);}.cls-38{fill:url(#linear-gradient-3);}.cls-39{fill:url(#linear-gradient-4);}.cls-40{clip-path:url(#clip-path);}.cls-41{fill:url(#linear-gradient-5);}.cls-42{fill:url(#linear-gradient-6);}.cls-43{clip-path:url(#clip-path-2);}.cls-44{fill:url(#linear-gradient-7);}.cls-45{fill:url(#linear-gradient-8);}.cls-46{fill:url(#linear-gradient-9);}.cls-47,.cls-48{font-size:22.9px;}.cls-47,.cls-50,.cls-52{fill:#6629ca;}.cls-47,.cls-48,.cls-49,.cls-50,.cls-51,.cls-52{font-family:SegoePrint-Bold, Segoe Print;font-weight:700;}.cls-48{fill:#fd40ff;}.cls-49,.cls-50{font-size:32.86px;}.cls-49,.cls-51{fill:#fd37ca;}.cls-51,.cls-52{font-size:31.53px;}</style><radialGradient id="radial-gradient" cx="478.08" cy="247.57" r="414.01" gradientUnits="userSpaceOnUse"><stop offset="0.02" stop-color="#fcba00"/><stop offset="0.96" stop-color="#fff1b3" stop-opacity="0.14"/><stop offset="1" stop-color="#fff4bb" stop-opacity="0.1"/></radialGradient><linearGradient id="linear-gradient" x1="846.41" y1="25.11" x2="857.62" y2="25.11" gradientTransform="matrix(0.75, -0.66, -0.66, -0.75, -80.4, 670.87)" gradientUnits="userSpaceOnUse"><stop offset="0.02" stop-color="#fd40ff"/><stop offset="0.2" stop-color="#e03bf3"/><stop offset="0.75" stop-color="#882ed6"/><stop offset="1" stop-color="#6629ca"/></linearGradient><linearGradient id="linear-gradient-2" x1="852.86" y1="16.44" x2="864.06" y2="16.44" xlink:href="#linear-gradient"/><linearGradient id="linear-gradient-3" x1="849.92" y1="21.01" x2="862.44" y2="21.01" xlink:href="#linear-gradient"/><linearGradient id="linear-gradient-4" x1="792.74" y1="16.7" x2="839" y2="16.7" xlink:href="#linear-gradient"/><clipPath id="clip-path"><path class="cls-1" d="M527.33,93.75a31,31,0,0,0-20.88,15.58,30.55,30.55,0,0,0-2.86,8c-.14.67-.23,1.35-.33,2s-.16,1.3-.2,2l0,.48v2.38l0,.47v.46l0,.46,0,.45,0,.23,0,.22.05.44c.08.59.16,1.17.27,1.73a27.53,27.53,0,0,0,.8,3.22,28.87,28.87,0,0,0,2.24,5.28c.42.74.83,1.41,1.24,2l.3.45.14.21.14.22.27.4.25.39c.58.73,1.18,1.44,1.83,2.11.21.23.39.4.51.53l.13.2-.13-.21-.41-.61a24.7,24.7,0,0,1-1.52-2.3l-.25-.38-.27-.4-.14-.2-.13-.21-.24-.47c-.31-.63-.62-1.34-.92-2.1a26.63,26.63,0,0,1-1.83-8.3c0-.53,0-1.07,0-1.62v-.61l0-.21v-.41l0-.43,0-.2,0-.21,0-.42.05-.43,0-.21,0-.21.07-.43.06-.42,0-.22,0-.22.08-.42c.13-.57.25-1.15.41-1.72s.32-1.14.52-1.71a25.21,25.21,0,0,1,8.62-11.89,24.45,24.45,0,0,1,6.3-3.54,23.9,23.9,0,0,1,5.34-1.35l1.48-8C528.21,93.57,527.77,93.66,527.33,93.75Z"/></clipPath><linearGradient id="linear-gradient-5" x1="792.73" y1="16.77" x2="839.04" y2="16.77" xlink:href="#linear-gradient"/><linearGradient id="linear-gradient-6" x1="836.57" y1="13.67" x2="854.02" y2="13.67" xlink:href="#linear-gradient"/><clipPath id="clip-path-2"><path class="cls-1" d="M547.94,109.35l.08.12.1.15.56.71,8.33-7.65-.74-.71-.25-.22-.09-.14,0-.08,0-.06-.58-.52c-.21-.18-.43-.37-.69-.57l-.38-.3-.2-.17-.27-.12-.43-.34-.47-.33-.25-.18-.24-.17-.53-.34c-.71-.48-1.51-1-2.37-1.43a32.72,32.72,0,0,0-9.71-3.4c-.63-.12-1.32-.18-1.93-.29l-.54-.08-.25,0-.25,0-.5,0-.5,0h-.52l-.49,0h-1l-.54,0h-.53l-.26.07h-.27l-.52,0-.47,0,1.39,8.23h0l.39,0,.38,0,.19,0,.19,0,.37,0,.38.07.18,0,.19,0,.36.08.36.07.17,0,.22.08.35.09c.46.12.92.25,1.36.39a25,25,0,0,1,2.49,1,24,24,0,0,1,3.94,2.33c.55.4,1,.8,1.48,1.18.07.12.22.19.32.29l.16.13.11.17.29.27.25.26.1.14.09.14.24.24.4.45.34.39Z"/></clipPath><linearGradient id="linear-gradient-7" x1="836.57" y1="13.68" x2="854.02" y2="13.68" xlink:href="#linear-gradient"/><linearGradient id="linear-gradient-8" x1="851.79" y1="22.89" x2="854.02" y2="22.89" xlink:href="#linear-gradient"/><linearGradient id="linear-gradient-9" x1="915.87" y1="442.37" x2="938.57" y2="442.37" gradientTransform="translate(-488.18 258.37) rotate(-33.56)" xlink:href="#linear-gradient"/></defs><title>Asset 12</title><g class="cls-2"><g id="Layer_2" data-name="Layer 2"><g id="Layer_1-2" data-name="Layer 1"><path class="cls-3" d="M0,386.35l485,10.86L4.28,343.8ZM966.73,345.6l-481,51.61,484.85-12.1ZM936,249.05,485.61,397.16a.1.1,0,0,0,0,0L912.71,208.37l-35.84-46.54L485.61,397.1l0,0L842,127.15,793.21,89.4,485.57,397s0,0,0,0L749,62.91,690.22,36.3,485.52,397l0,0L639.31,19.66,574.36,5.86,485.42,396.94h0L520,.12,452.91,0l32.42,396.93h-.05L398.53,5.53l-65,13.56L485.24,396.94s0,0,0,0L282.5,35.53,223.62,61.94,485.16,397s0,0,0,0L179.2,88.26l-49,37.56L485.12,397.07s0,0,0,0l-390-236.72-36.1,46.39L485.1,397.12a0,0,0,0,0,0,0L35.59,247.38l-20.9,52.3L485.12,397.2h.46l471-95.76Z"/><ellipse class="cls-4" cx="486.86" cy="363.44" rx="206.6" ry="33.77"/><rect class="cls-4" x="686.29" y="355" width="7.17" height="8.85"/><rect class="cls-4" x="280.26" y="355" width="7.17" height="8.85"/><ellipse class="cls-5" cx="486.86" cy="355" rx="206.6" ry="33.77"/><path class="cls-6" d="M486.86,321.73c113.59,0,205.75,15,206.58,33.52,0-.08,0-.16,0-.25,0-18.65-92.5-33.77-206.6-33.77S280.26,336.35,280.26,355c0,.09,0,.17,0,.25C281.11,336.72,373.27,321.73,486.86,321.73Z"/><ellipse class="cls-7" cx="486.86" cy="343.96" rx="108.57" ry="17.75"/><path class="cls-8" d="M486.86,388c-113.3,0-205.28-14.91-206.57-33.38,0,.13,0,.26,0,.39,0,18.65,92.5,33.77,206.6,33.77s206.6-15.12,206.6-33.77c0-.13,0-.26,0-.39C692.14,373.08,600.16,388,486.86,388Z"/><path class="cls-9" d="M624.18,342.27c-15.73-10-71.25-17.38-137.32-17.38s-121.59,7.38-137.32,17.38h-4.46v6.07h0c.93,12.67,64,22.9,141.76,22.9S627.69,361,628.62,348.34h0v-6.07Z"/><rect class="cls-10" x="468.68" y="340.03" width="5.91" height="26.67"/><path class="cls-10" d="M360.23,358.49c8.59,2.78,20.5,5.24,34.88,7.24V343.56H360.23Z"/><path class="cls-10" d="M407.57,367.28c5.54.61,11.37,1.16,17.44,1.64V343.56H407.57Z"/><rect class="cls-10" x="444.88" y="340.03" width="5.91" height="26.67"/><path class="cls-10" d="M610,359.56c2.14-.61,4.11-1.23,5.91-1.88V341.8H610Z"/><path class="cls-10" d="M501.5,371.11c12.14-.2,23.83-.65,34.88-1.33V345.33H501.5Z"/><path class="cls-10" d="M548.83,368.91c6.07-.48,11.9-1,17.44-1.65V345.33H548.83Z"/><path class="cls-10" d="M586.15,364.6c2-.32,4-.66,5.91-1V341.8h-5.91Z"/><ellipse class="cls-11" cx="486.86" cy="342.27" rx="141.78" ry="23.18"/><path class="cls-12" d="M486.86,319.28c78.11,0,141.47,10.33,141.77,23.08,0,0,0-.06,0-.09,0-12.8-63.48-23.17-141.78-23.17s-141.78,10.37-141.78,23.17c0,0,0,.06,0,.09C345.39,329.61,408.75,319.28,486.86,319.28Z"/><ellipse class="cls-7" cx="486.86" cy="334.69" rx="74.5" ry="12.18"/><path class="cls-13" d="M486.86,364.91C409.11,364.91,346,354.68,345.1,342c0,.09,0,.18,0,.27,0,12.8,63.48,23.18,141.78,23.18s141.78-10.38,141.78-23.18c0-.09,0-.18,0-.27C627.73,354.68,564.61,364.91,486.86,364.91Z"/><path class="cls-14" d="M568.13,329.39c-9.31-5.92-42.17-10.29-81.27-10.29s-72,4.37-81.27,10.29H403V333h0c.54,7.5,37.89,13.55,83.89,13.55s83.35-6,83.89-13.55h0v-3.59Z"/><path class="cls-10" d="M539.14,343.54q3.08-.41,5.91-.85V323.16h-5.91Z"/><path class="cls-10" d="M465.56,346.08V326.69H430.68V343A344.54,344.54,0,0,0,465.56,346.08Z"/><path class="cls-10" d="M495.46,346.46V326.69H478v19.76c2.91.05,5.85.08,8.84.08S492.63,346.5,495.46,346.46Z"/><path class="cls-10" d="M515.33,345.72q3-.18,5.92-.39V323.16h-5.92Z"/><ellipse class="cls-5" cx="486.86" cy="329.39" rx="83.91" ry="13.72"/><ellipse class="cls-15" cx="529.14" cy="335.81" rx="8.16" ry="1.24"/><polygon class="cls-15" points="499.6 337.29 441.63 332.33 482.02 322.3 539.98 327.26 499.6 337.29"/><path class="cls-8" d="M486.86,342.78c-46,0-83.37-6-83.9-13.55,0,0,0,.1,0,.16,0,7.57,37.57,13.71,83.91,13.71s83.91-6.14,83.91-13.71c0-.06,0-.11,0-.16C570.23,336.73,532.87,342.78,486.86,342.78Z"/><polygon class="cls-16" points="494.02 303.8 452.3 326.24 440.26 274.5 481.06 248.09 494.02 303.8"/><polygon class="cls-17" points="501.23 334.78 452.3 326.24 440.26 274.5 489.19 283.04 501.23 334.78"/><polygon class="cls-18" points="440.77 276.71 499.09 325.61 500.26 330.64 441.94 281.74 440.77 276.71"/><polygon class="cls-18" points="490.54 288.85 491.71 293.88 476.04 280.75 482.14 281.81 490.54 288.85"/><polygon class="cls-18" points="494.56 306.14 461.19 278.15 467.29 279.22 493.39 301.11 494.56 306.14"/><polygon class="cls-18" points="452.43 276.63 496.24 313.36 497.41 318.39 446.34 275.56 452.43 276.63"/><polygon class="cls-18" points="497.48 334.13 491.39 333.06 444.79 293.99 443.62 288.96 497.48 334.13"/><polygon class="cls-18" points="482.63 331.53 476.53 330.47 447.64 306.24 446.47 301.22 482.63 331.53"/><polygon class="cls-18" points="449.32 313.47 467.77 328.94 461.68 327.88 450.49 318.5 449.32 313.47"/><polygon class="cls-19" points="467.27 328.85 483.19 331.63 471.15 279.89 455.23 277.12 467.27 328.85"/><polygon class="cls-20" points="440.26 274.5 440.38 275.03 489.31 283.57 489.19 283.04 440.26 274.5"/><polygon class="cls-21" points="455.36 277.65 471.28 280.42 471.15 279.89 461.39 278.19 455.23 277.12 455.36 277.65"/><polygon class="cls-22" points="494.02 303.8 541.36 305.52 529.32 253.78 481.06 248.09 494.02 303.8"/><polygon class="cls-23" points="501.23 334.78 541.36 305.52 529.32 253.78 489.19 283.04 501.23 334.78"/><polygon class="cls-24" points="529.83 255.99 499.09 325.61 500.26 330.64 531 261.01 529.83 255.99"/><polygon class="cls-24" points="490.54 288.85 491.71 293.88 499.97 275.18 494.97 278.83 490.54 288.85"/><polygon class="cls-24" points="494.56 306.14 512.15 266.3 507.15 269.94 493.39 301.11 494.56 306.14"/><polygon class="cls-24" points="519.33 261.06 496.24 313.36 497.41 318.39 524.33 257.41 519.33 261.06"/><polygon class="cls-24" points="504.29 332.54 509.29 328.9 533.86 273.27 532.68 268.24 504.29 332.54"/><polygon class="cls-24" points="516.48 323.66 521.48 320.01 536.71 285.52 535.54 280.49 516.48 323.66"/><polygon class="cls-24" points="538.39 292.75 528.66 314.77 533.66 311.13 539.56 297.77 538.39 292.75"/><polygon class="cls-25" points="516.28 323.8 529.34 314.28 517.3 262.54 504.24 272.06 516.28 323.8"/><polygon class="cls-26" points="489.19 283.04 489.28 283.46 529.42 254.2 529.32 253.78 489.19 283.04"/><polygon class="cls-19" points="504.34 272.48 517.4 262.96 517.3 262.54 504.24 272.06 504.34 272.48"/><path class="cls-27" d="M452.06,106.34s3.94,10.38-7,23.47c-10.46-.21-10.45,4.11-10.45,4.11L433,126.71l1.7-7.55,2.58-3.17"/><path class="cls-28" d="M437.34,130.47a48.34,48.34,0,0,1,14.72-24.13l-15.71,7.1s-7.9,3.68-6.08,16.52Z"/><path class="cls-27" d="M398.07,129.37s5.24,9.79,22.32,10.11c6.71-8,10-5.18,10-5.18l-4.42-5.9-6.81-3.68-4.09-.13"/><path class="cls-28" d="M425.94,134.12a48.39,48.39,0,0,0-27.87-4.75l15.66-7.18s8-3.55,16.47,6.26Z"/><circle class="cls-19" cx="430.39" cy="131.18" r="8.14" transform="translate(275.58 553.64) rotate(-86.83)"/><path class="cls-21" d="M425,125.05a8.13,8.13,0,0,0-1.13,11,8.14,8.14,0,0,1,12.79-10,4.94,4.94,0,0,1,.35.45,7,7,0,0,0-.53-.69A8.14,8.14,0,0,0,425,125.05Z"/><path class="cls-29" d="M434.31,132.26a5.52,5.52,0,1,0,.53-7.79A5.51,5.51,0,0,0,434.31,132.26Z"/><path class="cls-25" d="M445.06,124.21s9.53-14,27.48-17.76l6.7,10.63s-13.89,1.6-17.39,12.6"/><path class="cls-30" d="M469,120.8a26.12,26.12,0,0,1,6.92-3l.37-.41v-3l-.37-1.79-3.36-6.09S473.65,112.53,469,120.8Z"/><path class="cls-25" d="M420.74,134.88A41,41,0,0,0,383,150.71l-.8,12.85s6.45-8.67,15.6-7.1l8.08-7.05"/><path class="cls-29" d="M418,139.41a5.52,5.52,0,1,0,.53-7.8A5.52,5.52,0,0,0,418,139.41Z"/><path class="cls-30" d="M382.58,157.46l1,3.21.74.58a20.89,20.89,0,0,1,4.82-3.39,13.63,13.63,0,0,1-6.16-7.15Z"/><polygon class="cls-22" points="402.06 170.48 462.39 143.87 467.45 129.67 429.96 139.25 403.33 154.35 402.06 170.48"/><polygon class="cls-31" points="454.99 132.21 462.39 143.87 467.45 129.67 454.51 132.98 454.99 132.21"/><polygon class="cls-17" points="399.33 142.83 406.05 155.59 402.06 170.48 395.55 157.94 399.33 142.83"/><polygon class="cls-32" points="395.77 158.2 399.52 143.2 399.33 142.83 395.55 157.94 402.06 170.48 402.09 170.37 395.77 158.2"/><polygon class="cls-23" points="399.33 142.83 406.05 155.59 467.45 129.67 460.79 117.8 399.33 142.83"/><polygon class="cls-24" points="453.02 135.76 460.85 117.92 460.79 117.8 456.67 119.48 448.73 137.58 453.02 135.76"/><polygon class="cls-24" points="458.67 133.38 462.92 131.58 465.37 125.96 463.41 122.47 458.67 133.38"/><polygon class="cls-24" points="427.8 146.41 432.09 144.6 440.17 126.2 435.91 127.94 427.8 146.41"/><polygon class="cls-24" points="442.56 140.18 450.55 121.97 446.29 123.71 438.26 141.99 442.56 140.18"/><polygon class="cls-24" points="401.76 147.45 403.67 151.08 409.02 138.89 404.76 140.62 401.76 147.45"/><polygon class="cls-24" points="417.33 150.83 421.63 149.01 429.78 130.43 425.52 132.17 417.33 150.83"/><polygon class="cls-24" points="406.87 155.24 411.16 153.43 419.4 134.66 415.14 136.39 406.87 155.24"/><polygon class="cls-19" points="425.57 147.35 446.98 138.31 441.01 125.86 419.53 134.61 425.57 147.35"/><polygon class="cls-33" points="460.98 118.14 460.76 117.73 399.3 142.76 399.51 143.18 460.98 118.14"/><polygon class="cls-34" points="419.72 135 441.2 126.26 440.97 125.79 419.5 134.53 419.72 135"/><path class="cls-28" d="M472.54,106.45s3,5.93-3.44,19.48l11.29,3.84a15,15,0,0,0,2.66-12.64Z"/><path class="cls-27" d="M469.1,125.93s7.4,1.88,16.52-4.5,12.68-7.3,12.68-7.3l-.3,7.61,6.48,4.47a40.87,40.87,0,0,0-10.3,5.82,18.78,18.78,0,0,1-11.85,3.59Z"/><path class="cls-27" d="M398.65,180.86s-5,6.26-17.13,1.78l5.1-4.86-2.12-5.48s6.32,2.18,9.88-.89c3.2.59,4,2.28,4,2.28Z"/><path class="cls-35" d="M398.39,173.69s-.81-1.69-4-2.28c-3.56,3.07-9.88.89-9.88.89l.54,1.39c12.74,1,13.61,7.17,13.61,7.17Z"/><path class="cls-28" d="M383,150.71s1,8.18,7,11,10.06,4.65,10.56,10.06l-1.88,9.05A9.55,9.55,0,0,0,392,173.5c-5.58-1.6-9.77-5-9.8-9.94Z"/><polygon class="cls-21" points="284.12 224.67 275.7 216.56 284.12 208.45 292.55 216.56 284.12 224.67"/><polygon class="cls-21" points="319.41 243.22 315.2 239.16 319.41 235.11 323.62 239.16 319.41 243.22"/><polygon class="cls-21" points="322.76 255.9 320.55 253.76 322.76 251.63 324.98 253.76 322.76 255.9"/><polygon class="cls-21" points="320.49 228.31 318.27 226.18 320.49 224.04 322.7 226.18 320.49 228.31"/><polygon class="cls-21" points="358.69 265.09 356.48 262.96 358.69 260.83 360.91 262.96 358.69 265.09"/><polygon class="cls-21" points="374.79 274.55 374.31 274.08 374.79 273.62 375.27 274.08 374.79 274.55"/><polygon class="cls-21" points="384.55 277.43 384.07 276.96 384.55 276.5 385.04 276.96 384.55 277.43"/><polygon class="cls-21" points="395.33 279.32 394.85 278.86 395.33 278.39 395.81 278.86 395.33 279.32"/><polygon class="cls-21" points="393.43 275.67 392.94 275.2 393.43 274.74 393.91 275.2 393.43 275.67"/><polygon class="cls-21" points="394.77 276.96 394.29 276.5 394.77 276.03 395.25 276.5 394.77 276.96"/><polygon class="cls-21" points="403.71 272.41 403.23 271.95 403.71 271.49 404.19 271.95 403.71 272.41"/><polygon class="cls-21" points="399.03 273.26 398.55 272.8 399.03 272.33 399.51 272.8 399.03 273.26"/><polygon class="cls-21" points="407.93 264.3 407.44 263.83 407.93 263.37 408.41 263.83 407.93 264.3"/><polygon class="cls-21" points="402.39 259.62 401.9 259.15 402.39 258.69 402.87 259.15 402.39 259.62"/><polygon class="cls-21" points="376.53 267.34 376.05 266.87 376.53 266.41 377.01 266.87 376.53 267.34"/><polygon class="cls-21" points="362.38 270.74 361.89 270.27 362.38 269.81 362.86 270.27 362.38 270.74"/><polygon class="cls-21" points="374.79 265.25 373.52 264.04 374.79 262.82 376.05 264.04 374.79 265.25"/><polygon class="cls-21" points="372.58 272.16 371.32 270.94 372.58 269.73 373.85 270.94 372.58 272.16"/><polygon class="cls-21" points="384.16 271.49 382.9 270.27 384.16 269.05 385.42 270.27 384.16 271.49"/><polygon class="cls-21" points="367.55 258.28 366.28 257.06 367.55 255.85 368.81 257.06 367.55 258.28"/><polygon class="cls-21" points="396.05 261.74 394.78 260.52 396.05 259.31 397.31 260.52 396.05 261.74"/><polygon class="cls-21" points="352.87 256.55 350.66 254.41 352.87 252.28 355.09 254.41 352.87 256.55"/><path class="cls-21" d="M274.37,250.42c-3.34-.42-7.1-1.25-10.35-.19a23.09,23.09,0,0,0-7.11-5.56c-1-.51-1.83.93-.85,1.44a21,21,0,0,1,6.25,4.88c-.21.13-.43.27-.63.42-2.44,1.77-3.85,6.2-.84,8.2,3.27,2.16,5.78-2.44,5.3-5.07a8.81,8.81,0,0,0-1.11-2.86l.46-.11c2.79-.58,5.67.11,8.44.46C275,252.16,275.47,250.56,274.37,250.42Zm-9.87,5.32a3.24,3.24,0,0,1-.84,2.08,1.62,1.62,0,0,1-2.68-.9c-.54-2,.72-3.6,2.39-4.54A5.62,5.62,0,0,1,264.5,255.74Z"/><polygon class="cls-25" points="263.37 252.38 262.31 250.99 261.46 251.57 263.37 252.38"/><polygon class="cls-25" points="265.03 251.68 264.02 250.23 264.89 249.99 265.03 251.68"/><path class="cls-21" d="M266,171.9a27.43,27.43,0,0,0-9.31,9.27c-4.33-1.42-9.65-.3-13.62,2.35a13,13,0,0,0-11.69.55c-1.48.79-.15,3,1.33,2.18a10.67,10.67,0,0,1,8.12-.93c-.37.37-.72.75-1.05,1.15-2.45,3-3.39,7.85-.74,11.07s7.14,1.38,8.72-2a9.27,9.27,0,0,0-2.38-10.46A15.57,15.57,0,0,1,253,183a8.34,8.34,0,0,1,2.6.4,13.56,13.56,0,0,0,.23,11.24c1.27,2.7,5,5.74,7.54,2.35,2.22-3,.77-8.18-.89-11.11a10.1,10.1,0,0,0-3.48-3.67,24.22,24.22,0,0,1,8.33-8.14A1.28,1.28,0,0,0,266,171.9Zm-22.76,14.73c2.43,2,3.56,5.84,1.79,8.54-.88,1.33-3.46,1.75-4.31.24a5.75,5.75,0,0,1-.63-3,8.07,8.07,0,0,1,2.6-5.25c.17-.17.35-.33.54-.49Zm18,3c.37,1.25,1,3.51.46,4.81-1.53,3.58-3.8-1.37-4.13-2.65a11.85,11.85,0,0,1,.36-7.17A9.56,9.56,0,0,1,261.24,189.6Z"/><polygon class="cls-25" points="243.26 186.62 245.41 185.11 246.43 186.21 243.26 186.62"/><polygon class="cls-25" points="240.86 185.32 243.1 183.52 241.98 183.05 240.86 185.32"/><polygon class="cls-25" points="255.63 183.42 256.72 181.17 255.63 180.87 255.63 183.42"/><polygon class="cls-25" points="259.02 182.24 257.85 184.81 260 182.92 259.02 182.24"/><path class="cls-21" d="M359.23,239.46a11.39,11.39,0,0,0-5.18.5,6.19,6.19,0,0,0-4.64-2.59,4.88,4.88,0,0,0-3.61-2.67.49.49,0,0,0-.18,1,4,4,0,0,1,2.65,1.69c-.2,0-.41,0-.61.08-1.51.31-3.05,1.51-3.11,3.1s1.76,2.14,3.1,1.53a3.68,3.68,0,0,0,2-3.68,6.07,6.07,0,0,1,2.8,1.22,3.07,3.07,0,0,1,.66.75,5.53,5.53,0,0,0-2.86,3.39c-.32,1.11,0,2.91,1.62,2.52,1.44-.35,2.36-2.24,2.64-3.51a3.78,3.78,0,0,0-.08-1.93,10.05,10.05,0,0,1,4.59-.4C359.7,240.52,359.88,239.55,359.23,239.46Zm-10.58-1.13a2.68,2.68,0,0,1-1.7,3c-.61.18-1.48-.32-1.34-1a2.28,2.28,0,0,1,.61-1.06,3.32,3.32,0,0,1,2.14-.92l.28,0Zm4.54,5.22a3.42,3.42,0,0,1-1.11,1.54c-1.39.69-.77-1.33-.54-1.79a4.85,4.85,0,0,1,2-2A3.56,3.56,0,0,1,353.19,243.55Z"/><polygon class="cls-25" points="348.64 238.32 349.68 238.39 349.69 238.97 348.64 238.32"/><polygon class="cls-25" points="348.27 237.36 349.4 237.37 349.2 236.95 348.27 237.36"/><polygon class="cls-25" points="353.14 240.36 354.05 239.96 353.81 239.61 353.14 240.36"/><polygon class="cls-25" points="354.46 240.83 353.44 241.31 354.57 241.27 354.46 240.83"/><polygon class="cls-21" points="367.55 244.81 368.66 247.23 371.39 246.94 369.76 249.08 371.39 251.21 368.66 250.93 367.55 253.35 366.44 250.93 363.71 251.21 365.33 249.08 363.71 246.94 366.44 247.23 367.55 244.81"/><polygon class="cls-21" points="339.58 240.89 340.54 242.97 342.89 242.72 341.49 244.56 342.89 246.4 340.54 246.15 339.58 248.23 338.63 246.15 336.28 246.4 337.68 244.56 336.28 242.72 338.63 242.97 339.58 240.89"/><polygon class="cls-21" points="346.74 257.99 347.51 259.67 349.4 259.47 348.28 260.95 349.4 262.44 347.51 262.24 346.74 263.92 345.97 262.24 344.08 262.44 345.2 260.95 344.08 259.47 345.97 259.67 346.74 257.99"/><polygon class="cls-21" points="277.37 138.38 278.32 140.47 280.67 140.22 279.27 142.06 280.67 143.9 278.32 143.65 277.37 145.73 276.41 143.65 274.06 143.9 275.46 142.06 274.06 140.22 276.41 140.47 277.37 138.38"/><polygon class="cls-21" points="299.08 239.16 301.06 243.49 305.94 242.97 303.04 246.79 305.94 250.6 301.06 250.09 299.08 254.41 297.1 250.09 292.22 250.6 295.12 246.79 292.22 242.97 297.1 243.49 299.08 239.16"/><polygon class="cls-21" points="259.05 153.69 259.59 154.87 260.91 154.73 260.12 155.76 260.91 156.79 259.59 156.65 259.05 157.82 258.52 156.65 257.19 156.79 257.98 155.76 257.19 154.73 258.52 154.87 259.05 153.69"/><polygon class="cls-21" points="275.7 97.2 276.24 98.38 277.56 98.24 276.77 99.27 277.56 100.3 276.24 100.16 275.7 101.33 275.17 100.16 273.85 100.3 274.63 99.27 273.85 98.24 275.17 98.38 275.7 97.2"/><polygon class="cls-21" points="307.07 148.15 307.61 149.32 308.93 149.19 308.14 150.22 308.93 151.25 307.61 151.11 307.07 152.28 306.53 151.11 305.21 151.25 306 150.22 305.21 149.19 306.53 149.32 307.07 148.15"/><polygon class="cls-21" points="692.68 219.19 704.86 217.01 702.38 204.89 690.2 207.07 692.68 219.19"/><polygon class="cls-21" points="647.29 214.54 653.38 213.44 652.14 207.38 646.05 208.47 647.29 214.54"/><polygon class="cls-21" points="648.65 229.56 651.86 228.99 651.21 225.8 648 226.37 648.65 229.56"/><polygon class="cls-21" points="669.19 219.82 672.18 221.2 673.5 218.27 670.51 216.89 669.19 219.82"/><polygon class="cls-21" points="605.39 210.37 608.6 209.8 607.94 206.61 604.74 207.18 605.39 210.37"/><polygon class="cls-21" points="603.23 202.36 603.22 202.37 603.22 202.37 603.23 202.37 603.23 202.36"/><path class="cls-21" d="M693.5,255c2.63,1.33,5.54,2.42,7.62,4.58.12.12.23.25.34.37a9.62,9.62,0,0,0-2.68,1.87c-2,2-2.55,7.57,1.59,7.59,3.81,0,5.24-4.72,4.17-7.72-.09-.26-.19-.5-.3-.74a22,22,0,0,1,8.36-.62c1.16.12,1.27-1.65.12-1.78a24.44,24.44,0,0,0-9.51.72c-2.21-2.85-6-4.34-9.13-5.94C693,252.76,692.47,254.44,693.5,255Zm9,6.55c.89,1.82,1,4-.64,5.41a1.7,1.7,0,0,1-2.87-.79,3.47,3.47,0,0,1,.51-2.33A6,6,0,0,1,702.49,261.51Z"/><polygon class="cls-25" points="702.49 261.51 704.24 260.91 704.63 261.92 702.49 261.51"/><polygon class="cls-25" points="701.46 259.91 703.21 259.23 702.59 258.51 701.46 259.91"/><path class="cls-21" d="M739.74,204a25,25,0,0,1-7.94,9.25,11,11,0,0,0-4.31-3.3c-3.33-1.47-9.07-2.55-12.07,0-3.4,2.87.26,6.49,3.31,7.58a15.32,15.32,0,0,0,12.15-.67,8.83,8.83,0,0,1,.7,2.65,15.44,15.44,0,0,1-1.47,8c-3.12-2.7-7.91-3.58-11.53-1.6-3.46,1.9-5.12,6.59-1.23,9.15s8.85,1.11,11.86-1.67a11.37,11.37,0,0,0,1.13-1.17,10.53,10.53,0,0,1-.16,8.45c-.71,1.6,1.79,2.79,2.49,1.2a12.93,12.93,0,0,0-.62-12.11c2.46-4.3,3.12-9.88,1.14-14.23a28,28,0,0,0,9-10.35C743,203.66,740.54,202.48,739.74,204Zm-11,25.86a7,7,0,0,1-.48.6,8.63,8.63,0,0,1-5.39,3.11,6.66,6.66,0,0,1-3.36-.41c-1.71-.75-1.53-3.45-.18-4.46,2.73-2.05,7-1.19,9.4,1.15Zm.67-15.29a13.38,13.38,0,0,1-7.69,1c-1.42-.24-7-2.19-3.29-4.05,1.35-.68,3.85-.19,5.24.09A10.66,10.66,0,0,1,729.37,214.59Z"/><polygon class="cls-25" points="728.7 229.88 730.11 227.54 728.81 226.58 728.7 229.88"/><polygon class="cls-25" points="730.34 232.25 732.05 229.79 732.68 230.91 730.34 232.25"/><polygon class="cls-25" points="730.88 216.87 733.19 215.56 733.63 216.66 730.88 216.87"/><polygon class="cls-25" points="731.8 213.27 729.14 214.69 730.96 212.32 731.8 213.27"/><path class="cls-21" d="M604.14,310.57a26.57,26.57,0,0,1-8.58-9.06,10.4,10.4,0,0,0,3.7-3.8c1.77-3.08,3.36-8.59,1.08-11.89-2.57-3.73-6.53-.62-7.9,2.23a15,15,0,0,0-.41,12.06,8.5,8.5,0,0,1-2.72.33,16.15,16.15,0,0,1-7.91-2.53A10,10,0,0,0,584,286.77c-1.59-3.66-6.16-5.93-9.07-2.45s-1.91,8.57.61,11.91a14.23,14.23,0,0,0,1.08,1.27,10.94,10.94,0,0,1-8.47-1.31,1.35,1.35,0,0,0-1.41,2.3c3.68,2.18,8.38,2.83,12.19,1,4.1,3,9.64,4.4,14.18,3.05a29.92,29.92,0,0,0,9.58,10.3C604.2,313.87,605.61,311.57,604.14,310.57Zm-25-14.37c-.19-.17-.38-.36-.56-.54a9,9,0,0,1-2.63-5.74,6.39,6.39,0,0,1,.7-3.25c.91-1.59,3.6-1,4.5.43,1.81,3,.56,7.09-2,9.1Zm15.28,2.74a13.18,13.18,0,0,1-.27-7.71c.37-1.36,2.81-6.59,4.36-2.69.56,1.42-.16,3.82-.56,5.15A9.94,9.94,0,0,1,594.45,298.94Z"/><polygon class="cls-25" points="579.17 296.2 581.4 297.91 582.48 296.76 579.17 296.2"/><polygon class="cls-25" points="576.65 297.5 578.96 299.52 577.78 299.99 576.65 297.5"/><polygon class="cls-25" points="592.03 300.11 593.14 302.56 592 302.85 592.03 300.11"/><polygon class="cls-25" points="595.56 301.51 594.37 298.7 596.59 300.81 595.56 301.51"/><path class="cls-21" d="M631,195.68a13.46,13.46,0,0,1,4.9,4,5.18,5.18,0,0,0-1.59,2.15c-.68,1.67-1.11,4.54.26,6.05,1.53,1.71,3.3-.12,3.8-1.64a7.61,7.61,0,0,0-.62-6.1,4.71,4.71,0,0,1,1.34-.34,8.23,8.23,0,0,1,4.13.75,5.09,5.09,0,0,0-.56,5.78c1,1.73,3.47,2.57,4.7.63s.37-4.44-1.11-5.95q-.3-.3-.63-.57a5.46,5.46,0,0,1,4.32.1.68.68,0,0,0,.55-1.25,6.66,6.66,0,0,0-6.16.29,8.51,8.51,0,0,0-7.3-.6,15.14,15.14,0,0,0-5.48-4.54C630.74,194,630.19,195.27,631,195.68Zm13.45,5.57a3.65,3.65,0,0,1,.31.24,4.53,4.53,0,0,1,1.71,2.71,3.3,3.3,0,0,1-.13,1.68c-.35.86-1.73.76-2.28.08a3.72,3.72,0,0,1,.38-4.71Zm-7.82-.36a6.74,6.74,0,0,1,.65,3.85c-.09.71-1,3.5-2,1.65a4.8,4.8,0,0,1-.06-2.63A5,5,0,0,1,636.62,200.89Z"/><polygon class="cls-25" points="644.44 201.25 643.21 200.54 642.75 201.19 644.44 201.25"/><polygon class="cls-25" points="645.61 200.43 644.32 199.57 644.88 199.25 645.61 200.43"/><polygon class="cls-25" points="637.74 200.13 637.02 198.97 637.58 198.76 637.74 200.13"/><polygon class="cls-25" points="635.89 199.66 636.67 201 635.42 200.09 635.89 199.66"/><polygon class="cls-21" points="607.65 188 603.5 190.55 599.7 187.34 599.93 192.23 595.31 193.82 599.7 196.16 598.87 200.96 603.02 198.41 606.82 201.62 606.58 196.73 611.21 195.14 606.82 192.8 607.65 188"/><polygon class="cls-21" points="629.84 202.22 627.76 203.49 625.86 201.89 625.98 204.33 623.66 205.13 625.86 206.3 625.45 208.7 627.52 207.43 629.42 209.03 629.3 206.58 631.62 205.79 629.42 204.62 629.84 202.22"/><polygon class="cls-21" points="588.61 199.09 587.43 199.81 586.36 198.9 586.42 200.29 585.11 200.74 586.36 201.4 586.12 202.76 587.29 202.04 588.37 202.94 588.3 201.56 589.62 201.11 588.37 200.45 588.61 199.09"/><polygon class="cls-21" points="759.37 166.48 757.3 167.76 755.4 166.15 755.51 168.6 753.2 169.39 755.39 170.56 754.98 172.96 757.06 171.69 758.96 173.29 758.84 170.85 761.15 170.05 758.96 168.88 759.37 166.48"/><polygon class="cls-21" points="662.71 234.77 658.4 237.41 654.46 234.08 654.71 239.16 649.9 240.81 654.46 243.24 653.6 248.22 657.9 245.58 661.85 248.91 661.6 243.83 666.41 242.18 661.85 239.75 662.71 234.77"/><polygon class="cls-21" points="731.8 198.6 730.63 199.31 729.56 198.41 729.63 199.79 728.33 200.23 729.56 200.89 729.33 202.24 730.5 201.52 731.56 202.43 731.5 201.05 732.8 200.6 731.57 199.95 731.8 198.6"/><polygon class="cls-21" points="784.5 117.34 783.33 118.06 782.26 117.15 782.33 118.53 781.03 118.97 782.26 119.63 782.03 120.98 783.19 120.27 784.26 121.17 784.2 119.79 785.5 119.35 784.26 118.69 784.5 117.34"/><polygon class="cls-21" points="718.69 159.11 717.53 159.83 716.46 158.93 716.53 160.3 715.23 160.75 716.46 161.4 716.23 162.75 717.39 162.04 718.46 162.94 718.39 161.56 719.7 161.12 718.46 160.46 718.69 159.11"/><g id="speed"><polygon class="cls-36" points="535.43 89.96 544.01 82.73 535.89 90.47 535.43 89.96"/><polygon class="cls-37" points="546.04 92.13 554.61 84.91 546.5 92.64 546.04 92.13"/><polygon class="cls-38" points="540.8 90.68 550.34 82.58 541.24 91.19 540.8 90.68"/><path class="cls-39" d="M527.33,93.75a31,31,0,0,0-20.88,15.58,30.55,30.55,0,0,0-2.86,8c-.14.67-.23,1.35-.33,2s-.16,1.3-.2,2l0,.48v2.38l0,.47v.46l0,.46,0,.45,0,.23,0,.22.05.44c.08.59.16,1.17.27,1.73a27.53,27.53,0,0,0,.8,3.22,28.87,28.87,0,0,0,2.24,5.28c.42.74.83,1.41,1.24,2l.3.45.14.21.14.22.27.4.25.39c.58.73,1.18,1.44,1.83,2.11.21.23.39.4.51.53l.13.2-.13-.21-.41-.61a24.7,24.7,0,0,1-1.52-2.3l-.25-.38-.27-.4-.14-.2-.13-.21-.24-.47c-.31-.63-.62-1.34-.92-2.1a26.63,26.63,0,0,1-1.83-8.3c0-.53,0-1.07,0-1.62v-.61l0-.21v-.41l0-.43,0-.2,0-.21,0-.42.05-.43,0-.21,0-.21.07-.43.06-.42,0-.22,0-.22.08-.42c.13-.57.25-1.15.41-1.72s.32-1.14.52-1.71a25.21,25.21,0,0,1,8.62-11.89,24.45,24.45,0,0,1,6.3-3.54,23.9,23.9,0,0,1,5.34-1.35l1.48-8C528.21,93.57,527.77,93.66,527.33,93.75Z"/><g class="cls-40"><polygon class="cls-41" points="496.73 127.22 508.94 104.5 525.35 89.81 534.83 100.39 511.74 143.33 511.42 143.61 496.73 127.22"/></g><path class="cls-42" d="M547.94,109.35l.08.12.1.15.56.71,8.33-7.65-.74-.71-.25-.22-.09-.14,0-.08,0-.06-.58-.52c-.21-.18-.43-.37-.69-.57l-.38-.3-.2-.17-.27-.12-.43-.34-.47-.33-.25-.18-.24-.17-.53-.34c-.71-.48-1.51-1-2.37-1.43a32.72,32.72,0,0,0-9.71-3.4c-.63-.12-1.32-.18-1.93-.29l-.54-.08-.25,0-.25,0-.5,0-.5,0h-.52l-.49,0h-1l-.54,0h-.53l-.26.07h-.27l-.52,0-.47,0,1.39,8.23h0l.39,0,.38,0,.19,0,.19,0,.37,0,.38.07.18,0,.19,0,.36.08.36.07.17,0,.22.08.35.09c.46.12.92.25,1.36.39a25,25,0,0,1,2.49,1,24,24,0,0,1,3.94,2.33c.55.4,1,.8,1.48,1.18.07.12.22.19.32.29l.16.13.11.17.29.27.25.26.1.14.09.14.24.24.4.45.34.39Z"/><g class="cls-43"><polygon class="cls-44" points="528.76 97.27 530.84 93.41 539.11 86 544.89 89.11 557.11 102.76 557.09 102.8 544.13 114.41 528.76 97.27"/><polygon class="cls-45" points="544.89 89.11 539.11 86 540.77 84.52 544.89 89.11"/></g><path class="cls-46" d="M528.78,101.37l-4,22a5.44,5.44,0,0,0-.62,2.5c0,.22,0,.45,0,.66l0,.23a5.55,5.55,0,0,0,11,.08l0-.22a5,5,0,0,0,.05-.67,5.47,5.47,0,0,0-.58-2.51L529.9,95.4Zm2.49,26.09a2.46,2.46,0,1,1,.19-3.48,2.48,2.48,0,0,1-.19,3.48Z"/></g><text class="cls-47" transform="translate(500.03 227.28) rotate(-72.39)">H</text><text class="cls-47" transform="translate(505.77 210.12) rotate(-67.64)">i</text><text class="cls-47" transform="matrix(0.43, -0.9, 0.9, 0.43, 508.13, 204.17)">g</text><text class="cls-47" transform="translate(513.59 192.52) rotate(-61.21)">h</text><text class="cls-47" transform="matrix(0.53, -0.85, 0.85, 0.53, 520.43, 180.2)"> </text><text class="cls-47" transform="translate(525.07 172.55) rotate(-55.28)">S</text><text class="cls-47" transform="matrix(0.62, -0.78, 0.78, 0.62, 533.24, 160.75)">p</text><text class="cls-47" transform="translate(542.3 149.4) rotate(-48.04)">e</text><text class="cls-47" transform="matrix(0.75, -0.66, 0.66, 0.75, 549.85, 140.79)">e</text><text class="cls-47" transform="matrix(0.85, -0.53, 0.53, 0.85, 558.17, 133.14)">d</text><text class="cls-47" transform="matrix(0.92, -0.4, 0.4, 0.92, 570.58, 125.58)"> </text><text class="cls-47" transform="matrix(0.95, -0.31, 0.31, 0.95, 578.66, 122.11)">i</text><text class="cls-47" transform="translate(584.44 119.92) rotate(-11.68)">n</text><text class="cls-47" transform="translate(598.83 117.05) rotate(-4.54)">e</text><text class="cls-47" transform="translate(610.31 116.14) rotate(0.66)">r</text><text class="cls-47" transform="translate(622.06 116.23) rotate(5.72)">n</text><text class="cls-47" transform="translate(636.85 117.75) rotate(9.89)">a</text><text class="cls-47" transform="translate(649.84 120.06) rotate(12.63)">t</text><text class="cls-47" transform="translate(659.89 121.75) rotate(21.37)">e</text><text class="cls-47" transform="matrix(0.84, 0.54, -0.54, 0.84, 670.01, 126.22)"> </text><text class="cls-47" transform="translate(677.88 131.26) rotate(31.44)">.</text><text class="cls-47" transform="translate(682.95 134.36) rotate(29.99)">.</text><text class="cls-47" transform="translate(688.19 137.39) rotate(27.92)">.</text><text class="cls-47" transform="translate(693.75 140.34) rotate(24.54)">.</text><text class="cls-48" transform="translate(501.05 225.29) rotate(-72.39)">H</text><text class="cls-48" transform="translate(506.78 208.13) rotate(-67.64)">i</text><text class="cls-48" transform="matrix(0.43, -0.9, 0.9, 0.43, 509.14, 202.18)">g</text><text class="cls-48" transform="translate(514.61 190.52) rotate(-61.21)">h</text><text class="cls-48" transform="matrix(0.53, -0.85, 0.85, 0.53, 521.44, 178.21)"> </text><text class="cls-48" transform="matrix(0.57, -0.82, 0.82, 0.57, 526.09, 170.55)">S</text><text class="cls-48" transform="matrix(0.62, -0.78, 0.78, 0.62, 534.25, 158.75)">p</text><text class="cls-48" transform="matrix(0.67, -0.74, 0.74, 0.67, 543.32, 147.4)">e</text><text class="cls-48" transform="translate(550.86 138.8) rotate(-41.65)">e</text><text class="cls-48" transform="matrix(0.85, -0.53, 0.53, 0.85, 559.18, 131.15)">d</text><text class="cls-48" transform="translate(571.6 123.59) rotate(-23.54)"> </text><text class="cls-48" transform="matrix(0.95, -0.31, 0.31, 0.95, 579.68, 120.12)">i</text><text class="cls-48" transform="translate(585.46 117.93) rotate(-11.68)">n</text><text class="cls-48" transform="translate(599.84 115.06) rotate(-4.54)">e</text><text class="cls-48" transform="translate(611.32 114.15) rotate(0.66)">r</text><text class="cls-48" transform="translate(623.07 114.23) rotate(5.72)">n</text><text class="cls-48" transform="translate(637.87 115.76) rotate(9.89)">a</text><text class="cls-48" transform="translate(650.85 118.07) rotate(12.63)">t</text><text class="cls-48" transform="matrix(0.93, 0.36, -0.36, 0.93, 660.9, 119.76)">e</text><text class="cls-48" transform="translate(671.03 124.23) rotate(32.54)"> </text><text class="cls-48" transform="matrix(0.85, 0.52, -0.52, 0.85, 678.9, 129.27)">.</text><text class="cls-48" transform="translate(683.96 132.36) rotate(29.99)">.</text><text class="cls-48" transform="matrix(0.88, 0.47, -0.47, 0.88, 689.2, 135.4)">.</text><text class="cls-48" transform="translate(694.77 138.35) rotate(24.54)">.</text><text class="cls-49" transform="translate(522.77 249.83) rotate(-48.13)">H</text><text class="cls-49" transform="translate(539.97 230.58) rotate(-41.81)">D</text><text class="cls-49" transform="matrix(0.81, -0.59, 0.59, 0.81, 559.15, 213.77)"> </text><text class="cls-49" transform="translate(569.03 206.08) rotate(-29.25)">P</text><text class="cls-49" transform="translate(588.42 195.62) rotate(-21.29)">i</text><text class="cls-49" transform="translate(596.37 192.15) rotate(-12.99)">c</text><text class="cls-49" transform="matrix(1, -0.01, 0.01, 1, 611.39, 188.56)">t</text><text class="cls-49" transform="translate(625.43 188.22) rotate(14)">u</text><text class="cls-49" transform="translate(644.1 192.95) rotate(21.4)">r</text><text class="cls-49" transform="translate(659.23 198.85) rotate(27.89)">e</text><text class="cls-50" transform="translate(523.73 248.34) rotate(-48.13)">H</text><text class="cls-50" transform="translate(540.93 229.09) rotate(-41.81)">D</text><text class="cls-50" transform="matrix(0.81, -0.59, 0.59, 0.81, 560.1, 212.28)"> </text><text class="cls-50" transform="translate(569.98 204.59) rotate(-29.25)">P</text><text class="cls-50" transform="translate(589.37 194.13) rotate(-21.29)">i</text><text class="cls-50" transform="translate(597.33 190.66) rotate(-12.99)">c</text><text class="cls-50" transform="matrix(1, -0.01, 0.01, 1, 612.34, 187.07)">t</text><text class="cls-50" transform="translate(626.38 186.73) rotate(14)">u</text><text class="cls-50" transform="translate(645.06 191.46) rotate(21.4)">r</text><text class="cls-50" transform="translate(660.18 197.36) rotate(27.89)">e</text><text class="cls-51" transform="translate(246.85 160.06) rotate(-10.82) scale(1.05 1)">6</text><text class="cls-51" transform="translate(269.37 155.63) rotate(-0.76) scale(1.05 1)">0</text><text class="cls-51" transform="translate(292.3 155.22) rotate(9.68) scale(1.05 1)">0</text><text class="cls-51" transform="matrix(1, 0.32, -0.3, 0.95, 315.02, 159.41)"> </text><text class="cls-51" transform="matrix(0.96, 0.43, -0.41, 0.91, 326.88, 162.98)">+</text><text class="cls-51" transform="translate(343.24 170.44) rotate(30.19) scale(1.05 1)"> </text><text class="cls-51" transform="translate(354.08 176.62) rotate(35.33) scale(1.05 1)">c</text><text class="cls-51" transform="matrix(0.8, 0.68, -0.65, 0.76, 367.11, 185.85)">h</text><text class="cls-51" transform="matrix(0.79, 0.69, -0.66, 0.75, 382.52, 198.96)">a</text><text class="cls-51" transform="translate(396.78 211.46) rotate(42.46) scale(1.05 1)">n</text><text class="cls-51" transform="matrix(0.76, 0.73, -0.69, 0.72, 412.62, 225.94)">n</text><text class="cls-51" transform="translate(428.06 240.84) rotate(45.29) scale(1.05 1)">e</text><text class="cls-51" transform="matrix(0.73, 0.75, -0.72, 0.7, 439.85, 252.79)">l</text><text class="cls-51" transform="translate(446.14 259.32) rotate(45.59) scale(1.05 1)">s</text><text class="cls-52" transform="translate(249.78 159) rotate(-8.72) scale(0.99 1)">6</text><text class="cls-52" transform="matrix(0.99, 0.02, -0.02, 1, 271.38, 155.6)">0</text><text class="cls-52" transform="matrix(0.97, 0.19, -0.19, 0.98, 293.18, 155.89)">0</text><text class="cls-52" transform="matrix(0.94, 0.31, -0.32, 0.95, 314.71, 160.35)"> </text><text class="cls-52" transform="translate(326.03 163.96) rotate(24.66) scale(0.99 1)">+</text><text class="cls-52" transform="matrix(0.85, 0.5, -0.51, 0.86, 341.62, 171.25)"> </text><text class="cls-52" transform="matrix(0.8, 0.57, -0.58, 0.82, 351.99, 177.25)">c</text><text class="cls-52" transform="matrix(0.75, 0.64, -0.65, 0.76, 364.45, 186.05)">h</text><text class="cls-52" transform="translate(379.19 198.58) rotate(41.22) scale(0.99 1)">a</text><text class="cls-52" transform="matrix(0.73, 0.66, -0.67, 0.74, 392.8, 210.49)">n</text><text class="cls-52" transform="matrix(0.71, 0.68, -0.69, 0.72, 407.93, 224.24)">n</text><text class="cls-52" transform="translate(422.71 238.38) rotate(44.98) scale(0.99 1)">e</text><text class="cls-52" transform="matrix(0.69, 0.71, -0.72, 0.7, 434.02, 249.73)">l</text><text class="cls-52" transform="translate(440.19 256.06) rotate(45.89) scale(0.99 1)">s</text></g></g></g></svg>