<svg xmlns="http://www.w3.org/2000/svg" viewBox="0 0 57.97 66.93"><title>ct-facebook</title><g id="Layer_2" data-name="Layer 2"><g id="Layer_1-2" data-name="Layer 1"><path d="M29,1.15,57,17.31V49.62L29,65.78,1,49.62V17.31L29,1.15M29,0,0,16.73V50.2L29,66.93,58,50.2V16.73L29,0Z" fill="#4490a7"/><g opacity="0.92"><path d="M29,6,52.79,19.72V47.21L29,61,5.18,47.21V19.72L29,6m0-1.15L4.18,19.15V47.79L29,62.11,53.79,47.79V19.15L29,4.83Z" fill="#5bc0de"/></g><path d="M24.37,51.77h7.37V33.31h5.14l.55-6.18H31.74V23.61c0-1.46.29-2,1.7-2h4V15.16h-5.1c-5.49,0-8,2.42-8,7v4.93H20.53v6.26h3.84Z" fill="#5bc0de"/></g></g></svg>