<svg xmlns="http://www.w3.org/2000/svg" viewBox="0 0 57.97 66.93"><title>ct-linkedin_1</title><g id="Layer_2" data-name="Layer 2"><g id="Layer_1-2" data-name="Layer 1"><path d="M29,1.15,57,17.31V49.62L29,65.78,1,49.62V17.31L29,1.15M29,0,0,16.73V50.2L29,66.93,58,50.2V16.73L29,0Z" fill="#4490a7"/><path d="M29,6,52.79,19.72V47.21L29,61,5.18,47.21V19.72L29,6m0-1.15L4.18,19.15V47.79L29,62.11,53.79,47.79V19.15L29,4.83Z" fill="#5bc0de"/><rect x="14.41" y="28.41" width="6.27" height="20.25" fill="#5bc0de"/><path d="M17.51,25.75A3.74,3.74,0,1,0,13.81,22,3.72,3.72,0,0,0,17.51,25.75Z" fill="#5bc0de"/><path d="M30.69,38c0-2.84,1.31-4.54,3.82-4.54,2.31,0,3.41,1.63,3.41,4.54V48.65h6.24V35.83c0-5.42-3.07-8-7.37-8a7.07,7.07,0,0,0-6.1,3.34V28.41h-6V48.65h6Z" fill="#5bc0de"/></g></g></svg>