<svg xmlns="http://www.w3.org/2000/svg" viewBox="0 0 57.97 66.93"><title>ct-twitter</title><g id="Layer_2" data-name="Layer 2"><g id="Layer_1-2" data-name="Layer 1"><path d="M29,1.15,57,17.31V49.62L29,65.78,1,49.62V17.31L29,1.15M29,0,0,16.73V50.2L29,66.93,58,50.2V16.73L29,0Z" fill="#4490a7"/><path d="M29,6,52.79,19.72V47.21L29,61,5.18,47.21V19.72L29,6m0-1.15L4.18,19.15V47.79L29,62.11,53.79,47.79V19.15L29,4.83Z" fill="#5bc0de"/><path d="M12.85,43.6a18.73,18.73,0,0,0,10.15,3c12.29,0,19.23-10.38,18.81-19.69a13.49,13.49,0,0,0,3.31-3.43,13.54,13.54,0,0,1-3.8,1,6.62,6.62,0,0,0,2.9-3.66A13.18,13.18,0,0,1,40,22.45a6.62,6.62,0,0,0-11.28,6A18.77,18.77,0,0,1,15.1,21.57a6.63,6.63,0,0,0,2,8.84,6.72,6.72,0,0,1-3-.83,6.61,6.61,0,0,0,5.31,6.57,6.53,6.53,0,0,1-3,.11,6.6,6.6,0,0,0,6.18,4.6A13.29,13.29,0,0,1,12.85,43.6Z" fill="#5bc0de"/></g></g></svg>